<?xml version="1.0" encoding="utf-8"?>
<!-- Generator: Adobe Illustrator 22.0.1, SVG Export Plug-In . SVG Version: 6.00 Build 0)  -->
<svg version="1.1" id="Capa_1" xmlns="http://www.w3.org/2000/svg" xmlns:xlink="http://www.w3.org/1999/xlink" x="0px" y="0px"
	 viewBox="0 0 256.6 256.6" style="enable-background:new 0 0 256.6 256.6;" xml:space="preserve">
<style type="text/css">
	.st0{fill:#FFFFFF;}
</style>
<g>
	<g id="_x38_7_36_">
		<g>
			<path class="st0" d="M65.1,95.2c-7.7,0-7.7,11.9,0,11.9c30.6,0,61.2,0,91.7,0c7.7,0,7.7-11.9,0-11.9
				C126.3,95.2,95.7,95.2,65.1,95.2z"/>
			<path class="st0" d="M156.9,123.4c-30.6,0-61.2,0-91.7,0c-7.7,0-7.7,11.9,0,11.9c30.6,0,61.2,0,91.7,0
				C164.6,135.3,164.6,123.4,156.9,123.4z"/>
			<path class="st0" d="M156.9,149.5c-30.6,0-61.2,0-91.7,0c-7.7,0-7.7,11.9,0,11.9c30.6,0,61.2,0,91.7,0
				C164.6,161.4,164.6,149.5,156.9,149.5z"/>
			<path class="st0" d="M156.9,177.7c-30.6,0-61.2,0-91.7,0c-7.7,0-7.7,11.9,0,11.9c30.6,0,61.2,0,91.7,0
				C164.6,189.6,164.6,177.7,156.9,177.7z"/>
			<path class="st0" d="M155.1,204.3c-30.6,0-61.2,0-91.8,0c-7.7,0-7.7,11.9,0,11.9c30.6,0,61.2,0,91.8,0
				C162.8,216.2,162.8,204.3,155.1,204.3z"/>
			<path class="st0" d="M25.4,34.2v222.4h171.3V65l-31.8-30.9C164.8,34.2,25.4,34.2,25.4,34.2z M181.9,241.8H40.2V49h117v23.5h24.6
				L181.9,241.8L181.9,241.8z"/>
			<polygon class="st0" points="54.3,0.1 54.3,25.8 69.1,25.8 69.1,14.9 186.2,14.9 186.2,38.4 210.8,38.4 210.8,207.7 204.3,207.7 
				204.3,222.5 225.6,222.5 225.6,30.9 193.8,0.1 			"/>
		</g>
	</g>
</g>
</svg>
