<svg xmlns="http://www.w3.org/2000/svg" width="120" height="120" viewBox="0 0 120 120">
  <g id="组_336" data-name="组 336" transform="translate(-774 -586)">
    <circle id="椭圆_2" data-name="椭圆 2" cx="60" cy="60" r="60" transform="translate(774 586)" fill="#22b573"/>
    <g id="组_47" data-name="组 47" transform="translate(0.271 21.444)">
      <g id="组_34" data-name="组 34">
        <g id="组_33" data-name="组 33">
          <path id="路径_68" data-name="路径 68" d="M867.911,655.865,840.269,635.1a2.052,2.052,0,0,1,.313-3.476l5.381-2.69a6.154,6.154,0,0,0,1.6-9.854l-6.191-6.189a2.052,2.052,0,0,1-.384-2.368l.162-.324h25.529a2.052,2.052,0,0,0,1.451-3.5l-12.306-12.3a2.047,2.047,0,0,0-2.89-.009l-7.946,7.857L826.672,589.9a2.057,2.057,0,0,0-2.285,0l-24.719,16.526a2.042,2.042,0,0,0,1.1,3.759h26.406a6.166,6.166,0,0,0,.925,7.54l1.833,1.833-6.358,2.12a10.264,10.264,0,0,0-5.452,4.29l-19.08,30.447a2.051,2.051,0,0,0,1.737,3.141h65.9a2.051,2.051,0,0,0,1.233-3.691Zm-13.546-57.13,7.362,7.364h-14.8ZM807.538,606.1l17.983-12.023,16.493,11.109-.923.914Zm-3.053,49.355h0L821.6,628.145a6.159,6.159,0,0,1,3.271-2.577l9.506-3.168a2.052,2.052,0,0,0,.8-3.4L831,614.825a2.051,2.051,0,0,1,.532-3.285l2.68-1.355H836.8a6.164,6.164,0,0,0,1.674,5.606l6.19,6.19a2.051,2.051,0,0,1-.532,3.286l-5.381,2.69a6.152,6.152,0,0,0-.941,10.424l22.728,17.073Z" fill="#fff"/>
        </g>
      </g>
      <g id="组_36" data-name="组 36">
        <g id="组_35" data-name="组 35">
          <path id="路径_69" data-name="路径 69" d="M821.425,647.114h-4.1a2.051,2.051,0,1,0,0,4.1h4.1a2.051,2.051,0,0,0,0-4.1Z" fill="#fff"/>
        </g>
      </g>
      <g id="组_38" data-name="组 38">
        <g id="组_37" data-name="组 37">
          <path id="路径_70" data-name="路径 70" d="M829.628,630.708h-4.1a2.051,2.051,0,0,0,0,4.1h4.1a2.051,2.051,0,1,0,0-4.1Z" fill="#fff"/>
        </g>
      </g>
      <g id="组_40" data-name="组 40">
        <g id="组_39" data-name="组 39">
          <path id="路径_71" data-name="路径 71" d="M841.933,647.114h-8.2a2.051,2.051,0,0,0,0,4.1h8.2a2.051,2.051,0,0,0,0-4.1Z" fill="#fff"/>
        </g>
      </g>
      <g id="组_42" data-name="组 42">
        <g id="组_41" data-name="组 41">
          <path id="路径_72" data-name="路径 72" d="M829.628,638.912h-8.2a2.05,2.05,0,1,0,0,4.1h8.2a2.05,2.05,0,1,0,0-4.1Z" fill="#fff"/>
        </g>
      </g>
      <g id="组_44" data-name="组 44">
        <g id="组_43" data-name="组 43">
          <path id="路径_73" data-name="路径 73" d="M804.883,614.3c-4.091,0-6.154,7.493-6.154,10.254a6.163,6.163,0,0,0,4.1,5.8v2.4a2.051,2.051,0,1,0,4.1,0v-2.4a6.162,6.162,0,0,0,4.1-5.8C811.034,621.932,809.052,614.3,804.883,614.3Zm0,12.3a2.053,2.053,0,0,1-2.052-2.05,12.608,12.608,0,0,1,2.052-5.953,12.649,12.649,0,0,1,2.049,5.953A2.051,2.051,0,0,1,804.883,626.606Z" fill="#fff"/>
        </g>
      </g>
      <g id="组_46" data-name="组 46">
        <g id="组_45" data-name="组 45">
          <path id="路径_74" data-name="路径 74" d="M858.477,622.5c-4.115,0-6.154,7.551-6.154,10.254a6.161,6.161,0,0,0,4.1,5.8v2.4a2.05,2.05,0,0,0,4.1,0v-2.4a6.161,6.161,0,0,0,4.1-5.8C864.628,630.139,862.646,622.5,858.477,622.5Zm0,12.3a2.053,2.053,0,0,1-2.051-2.051,12.61,12.61,0,0,1,2.051-5.953,12.669,12.669,0,0,1,2.05,5.953A2.054,2.054,0,0,1,858.477,634.809Z" fill="#fff"/>
        </g>
      </g>
    </g>
  </g>
</svg>
