<svg xmlns="http://www.w3.org/2000/svg" width="100" height="100" viewBox="0 0 100 100">
  <g id="icon-normal" transform="translate(-317 -339)">
    <rect id="矩形_148" data-name="矩形 148" width="100" height="100" transform="translate(317 339)" fill="none"/>
    <g id="组_380" data-name="组 380" transform="translate(325 347)">
      <path id="路径_434" data-name="路径 434" d="M55.836,0H18.494a2.49,2.49,0,0,0-1.761.73l-16,16A2.491,2.491,0,0,0,0,18.494V77.175A7.834,7.834,0,0,0,7.825,85H55.836a7.826,7.826,0,0,0,7.825-7.825V7.825A7.825,7.825,0,0,0,55.836,0ZM18.672,5.835v9.992a2.848,2.848,0,0,1-2.844,2.844H5.835Zm40.01,71.341a2.847,2.847,0,0,1-2.844,2.844H7.825A2.848,2.848,0,0,1,4.98,77.175V23.652H15.827a7.834,7.834,0,0,0,7.825-7.825V4.98H55.836a2.845,2.845,0,0,1,2.844,2.844v69.35Z" fill="#0d73ad"/>
      <path id="路径_435" data-name="路径 435" d="M114.83,192.8H82.822a2.49,2.49,0,1,0,0,4.98H114.83a2.49,2.49,0,0,0,0-4.98Z" transform="translate(-66.996 -160.793)" fill="#0d73ad"/>
      <path id="路径_436" data-name="路径 436" d="M114.83,257.066H82.822a2.49,2.49,0,0,0,0,4.98H114.83a2.49,2.49,0,1,0,0-4.98Z" transform="translate(-66.996 -214.389)" fill="#0d73ad"/>
      <path id="路径_437" data-name="路径 437" d="M114.83,321.332H82.822a2.49,2.49,0,0,0,0,4.98H114.83a2.49,2.49,0,1,0,0-4.98Z" transform="translate(-66.996 -267.986)" fill="#0d73ad"/>
      <path id="路径_438" data-name="路径 438" d="M98.826,385.6h-16a2.49,2.49,0,0,0,0,4.98h16a2.49,2.49,0,1,0,0-4.98Z" transform="translate(-66.996 -321.586)" fill="#0d73ad"/>
      <path id="路径_439" data-name="路径 439" d="M425.559,0a7.834,7.834,0,0,0-7.825,7.825V59.912a53.284,53.284,0,0,0,5.6,23.711,2.49,2.49,0,0,0,4.455,0,53.3,53.3,0,0,0,5.6-23.711V7.825A7.834,7.834,0,0,0,425.559,0Zm0,4.98A2.848,2.848,0,0,1,428.4,7.825v5.512h-5.689V7.825A2.848,2.848,0,0,1,425.559,4.98Zm2.844,53.7h-5.689V18.317H428.4Zm-2.844,17.5a48.428,48.428,0,0,1-2.693-12.524h5.387A48.444,48.444,0,0,1,425.559,76.186Z" transform="translate(-348.384)" fill="#0d73ad"/>
    </g>
  </g>
</svg>
