<svg xmlns="http://www.w3.org/2000/svg" width="150" height="150" viewBox="0 0 150 150">
  <g id="icon-pumping-station" transform="translate(2860 -6243)">
    <g id="组_500" data-name="组 500" transform="translate(-3785 4645)">
      <g id="椭圆_39" data-name="椭圆 39" transform="translate(925 1598)" fill="#2faae5" stroke="#2faae5" stroke-width="1">
        <circle cx="75" cy="75" r="75" stroke="none"/>
        <circle cx="75" cy="75" r="74.5" fill="none"/>
      </g>
      <text id="運作狀態" transform="translate(956 1719.259)" fill="#fff" font-size="22" font-family="NotoSansCJKtc-Bold, Noto Sans CJK TC" font-weight="700"><tspan x="0" y="0">運作狀態</tspan></text>
    </g>
    <g id="组_632" data-name="组 632" transform="translate(-2873 6183.206)">
      <path id="路径_511" data-name="路径 511" d="M104.2,98.62c.769,0,15.084-.021,15.23-.021a1.673,1.673,0,0,0,1.669-1.671V91.465a1.673,1.673,0,0,0-1.671-1.671H103.879A9.678,9.678,0,0,0,97.742,91.7a8.038,8.038,0,0,0-2.853,6.622V101.8h0a1.673,1.673,0,0,0-1.671,1.671v5.365H91.372v-.03a2.879,2.879,0,0,0-2.875-2.876H84.8a2.879,2.879,0,0,0-2.876,2.876v.03H79.138V107.34a4.838,4.838,0,0,0-4.834-4.831H70.959a4.838,4.838,0,0,0-4.834,4.831v1.581a15.787,15.787,0,0,0-.011,31.4v5.136h-12.4A1.7,1.7,0,0,0,52,147.012a1.658,1.658,0,0,0,.448,1.253,1.677,1.677,0,0,0,1.219.529h65.716a1.7,1.7,0,0,0,1.713-1.56,1.657,1.657,0,0,0-.448-1.253,1.677,1.677,0,0,0-1.219-.529H78.1v-5.047h3.827v.031a2.879,2.879,0,0,0,2.876,2.876H88.5a2.879,2.879,0,0,0,2.875-2.876v-.031H109.76a1.673,1.673,0,0,0,1.671-1.671v-5.214h8a1.673,1.673,0,0,0,1.671-1.671V117.388a1.673,1.673,0,0,0-1.671-1.671h-8V110.5a1.673,1.673,0,0,0-1.671-1.671h-3.891v-5.365A1.673,1.673,0,0,0,104.2,101.8h0c0-1.331,0-3.072,0-3.159A.052.052,0,0,1,104.2,98.62ZM89.7,128.944a1.673,1.673,0,0,0-1.671,1.671v9.355H85.269v-30.7h2.762v9.343a1.671,1.671,0,1,0,3.342,0v-6.438h16.716v24.89H91.372v-6.449A1.673,1.673,0,0,0,89.7,128.944Zm14.178-35.809h13.882V95.26l-13.242.017a3.743,3.743,0,0,0-2.8.936,3.6,3.6,0,0,0-.865,2.743V101.8H98.23V98.323C98.23,94.881,100.131,93.136,103.879,93.136Zm-7.32,15.7v-3.694h5.967v3.694Zm-21.8,31.573v5.047h-5.3v-5.047Zm-3.8-34.555H74.3A1.493,1.493,0,0,1,75.8,107.34v1.493H69.466V107.34A1.493,1.493,0,0,1,70.959,105.851Zm10.969,6.324v24.89H67.784a12.445,12.445,0,0,1,0-24.89Zm29.5,18.005V119.059h6.331V130.18Z" transform="translate(0 0)" fill="#fff"/>
      <path id="路径_512" data-name="路径 512" d="M205.973,341.168h3.516a1.671,1.671,0,1,0,0-3.341h-3.516a1.671,1.671,0,1,0,0,3.341Z" transform="translate(-131.945 -214.88)" fill="#fff"/>
      <path id="路径_513" data-name="路径 513" d="M205.973,291.194h3.516a1.671,1.671,0,0,0,0-3.342h-3.516a1.671,1.671,0,0,0,0,3.342Z" transform="translate(-131.945 -171.585)" fill="#fff"/>
      <path id="路径_514" data-name="路径 514" d="M205.973,391.172h3.516a1.671,1.671,0,0,0,0-3.342h-3.516a1.671,1.671,0,0,0,0,3.342Z" transform="translate(-131.945 -258.2)" fill="#fff"/>
      <path id="路径_515" data-name="路径 515" d="M323.239,337.8a1.672,1.672,0,1,0,1.671,1.671A1.674,1.674,0,0,0,323.239,337.8Z" transform="translate(-233.537 -214.856)" fill="#fff"/>
    </g>
  </g>
</svg>
