<svg xmlns="http://www.w3.org/2000/svg" width="120" height="120" viewBox="0 0 120 120">
  <g id="组_335" data-name="组 335" transform="translate(-924 -586)">
    <circle id="椭圆_3" data-name="椭圆 3" cx="60" cy="60" r="60" transform="translate(924 586)" fill="#2faae5"/>
    <g id="组_49" data-name="组 49" transform="translate(-1.104 22.18)">
      <path id="路径_75" data-name="路径 75" d="M990.76,629.414H1001.7a2.051,2.051,0,0,0,2.051-2.051V616.427a2.051,2.051,0,0,0-2.051-2.052H990.76a2.05,2.05,0,0,0-2.049,2.052v10.936A2.05,2.05,0,0,0,990.76,629.414Zm2.052-10.936h6.836v6.836h-6.836Z" fill="#fff"/>
      <path id="路径_76" data-name="路径 76" d="M952.48,636.944a4.514,4.514,0,0,1,2.963,1.023,8.873,8.873,0,0,0,10.479,0,4.805,4.805,0,0,1,5.928,0,8.872,8.872,0,0,0,10.478,0,4.805,4.805,0,0,1,5.928,0,8.872,8.872,0,0,0,10.478,0,4.805,4.805,0,0,1,5.928,0,8.873,8.873,0,0,0,10.479,0,4.5,4.5,0,0,1,2.962-1.023,2.05,2.05,0,1,0,0-4.1,8.438,8.438,0,0,0-5.238,1.712,10.014,10.014,0,0,1-.912.565V614.2l2.158,1.681a2.051,2.051,0,1,0,2.518-3.239l-30.078-23.393a2.051,2.051,0,0,0-2.518,0l-30.078,23.393a2.051,2.051,0,0,0,2.518,3.239l2.16-1.681V635.12a10.192,10.192,0,0,1-.914-.565,8.453,8.453,0,0,0-5.239-1.712,2.05,2.05,0,0,0,0,4.1Zm28.028-2.688c-.158.1-.309.2-.455.3a4.805,4.805,0,0,1-5.928,0,9.027,9.027,0,0,0-3.19-1.494V618.478h9.573Zm4.785-40.788,22.559,17.547v24.1a10.031,10.031,0,0,1-.914-.565,8.874,8.874,0,0,0-10.479,0,4.805,4.805,0,0,1-5.928,0,8.452,8.452,0,0,0-5.238-1.712c-.24,0-.465.011-.684.024v-16.44a2.051,2.051,0,0,0-2.052-2.052h-13.67a2.051,2.051,0,0,0-2.053,2.052v16.634a9.032,9.032,0,0,0-3.188,1.494,9.915,9.915,0,0,1-.914.565v-24.1Z" fill="#fff"/>
      <path id="路径_77" data-name="路径 77" d="M1018.1,642.414a8.438,8.438,0,0,0-5.238,1.711,4.8,4.8,0,0,1-5.927,0,8.878,8.878,0,0,0-10.479,0,4.8,4.8,0,0,1-5.928,0,8.878,8.878,0,0,0-10.478,0,4.8,4.8,0,0,1-5.928,0,8.882,8.882,0,0,0-10.479,0,4.8,4.8,0,0,1-5.927,0,8.46,8.46,0,0,0-5.239-1.71,2.051,2.051,0,0,0,0,4.1,4.513,4.513,0,0,1,2.963,1.023,8.878,8.878,0,0,0,10.479,0,4.805,4.805,0,0,1,5.928,0,8.876,8.876,0,0,0,10.478,0,4.805,4.805,0,0,1,5.928,0,8.876,8.876,0,0,0,10.478,0,4.807,4.807,0,0,1,5.928,0,8.873,8.873,0,0,0,10.479,0,4.508,4.508,0,0,1,2.962-1.022,2.051,2.051,0,1,0,0-4.1Z" fill="#fff"/>
      <path id="路径_78" data-name="路径 78" d="M1018.1,651.983a8.437,8.437,0,0,0-5.238,1.713,4.808,4.808,0,0,1-5.927,0,8.869,8.869,0,0,0-10.479,0,4.807,4.807,0,0,1-5.928,0,8.87,8.87,0,0,0-10.478,0,4.807,4.807,0,0,1-5.928,0,8.873,8.873,0,0,0-10.479,0,4.8,4.8,0,0,1-5.927,0,8.459,8.459,0,0,0-5.239-1.712,2.051,2.051,0,0,0,0,4.1,4.508,4.508,0,0,1,2.963,1.023,8.873,8.873,0,0,0,10.479,0,4.806,4.806,0,0,1,5.928,0,8.872,8.872,0,0,0,10.478,0,4.806,4.806,0,0,1,5.928,0,8.872,8.872,0,0,0,10.478,0,4.809,4.809,0,0,1,5.928,0,8.865,8.865,0,0,0,10.479,0,4.508,4.508,0,0,1,2.962-1.021,2.051,2.051,0,1,0,0-4.1Z" fill="#fff"/>
    </g>
  </g>
</svg>
