<svg xmlns="http://www.w3.org/2000/svg" width="120" height="120" viewBox="0 0 120 120">
  <g id="icon-water-pump" transform="translate(-730 -262)">
    <circle id="椭圆_2" data-name="椭圆 2" cx="60" cy="60" r="60" transform="translate(730 262)" fill="#2faae5"/>
    <g id="组_444" data-name="组 444" transform="translate(751.6 284.8)">
      <path id="路径_464" data-name="路径 464" d="M32.012,71.219A12.573,12.573,0,0,0,44.57,58.66V51.125h5.023V68.707a2.512,2.512,0,0,0,2.512,2.512h2.512V102.95H59.64V71.219h7.786V102.95H72.45V71.219h2.512a2.512,2.512,0,0,0,2.512-2.512V66.2h7.535a2.515,2.515,0,0,1,2.512,2.512V73.73a2.512,2.512,0,0,0,2.512,2.512h10.047a2.512,2.512,0,0,0,2.512-2.512V68.707A17.6,17.6,0,0,0,85.008,51.125H77.473V48.614A2.512,2.512,0,0,0,74.962,46.1H67.427V40.646a7.547,7.547,0,0,0,5.023-7.1c0-4.155-3.4-7.175-7.535-7.535-2.888-.251-8.121.335-9.866,5.023H52.105A12.573,12.573,0,0,0,39.547,43.59V58.66A7.544,7.544,0,0,1,32.012,66.2a2.512,2.512,0,0,0,0,5.023Zm45.462-15.07h7.535A12.573,12.573,0,0,1,97.567,68.707v2.512H92.544V68.707a7.544,7.544,0,0,0-7.535-7.535H77.473ZM72.45,51.125V66.2H54.617V51.125ZM63.476,29.633c2.556,0,4.635,1.713,4.635,3.818s-2.079,3.818-4.635,3.818-4.635-1.713-4.635-3.818S60.92,29.633,63.476,29.633ZM44.57,43.59a7.544,7.544,0,0,1,7.535-7.535h2.944a7.571,7.571,0,0,0,4.591,4.591V46.1H44.57Z" transform="translate(-29.5 -25.96)" fill="#fff"/>
      <path id="路径_465" data-name="路径 465" d="M390.063,355.71l-4.353-7.538a2.512,2.512,0,0,0-4.35,0l-4.353,7.538a7.535,7.535,0,1,0,13.056,0Z" transform="translate(-317.98 -293.173)" fill="#fff"/>
    </g>
  </g>
</svg>
