<svg xmlns="http://www.w3.org/2000/svg" width="100" height="100" viewBox="0 0 100 100">
  <g id="组_360" data-name="组 360" transform="translate(-595 -368)">
    <rect id="矩形_148" data-name="矩形 148" width="100" height="100" transform="translate(595 368)" fill="none"/>
    <g id="组_359" data-name="组 359" transform="translate(551.209 326.471)">
      <g id="组_357" data-name="组 357" transform="translate(48.791 45.53)">
        <path id="路径_398" data-name="路径 398" d="M88.544,72.27H98.923V55.8h39.856V45.53H48.79V55.8H88.544Z" transform="translate(-48.79 -45.53)" fill="#fff"/>
        <path id="路径_399" data-name="路径 399" d="M128.608,138.353V189.93L93.672,167.356l-34.5,22.521V138.353H48.905v70.5L93.7,179.6,138.879,208.8V138.353Z" transform="translate(-48.879 -117.4)" fill="#fff"/>
      </g>
      <g id="组_358" data-name="组 358" transform="translate(63.097 75.471)">
        <path id="路径_400" data-name="路径 400" d="M112.168,186.846c0-5.468,4.721-8.673,10.607-8.673a10.973,10.973,0,0,1,6.842,2.129l-2.36,2.107a6.823,6.823,0,0,0-4.333-1.39c-3.675,0-6.245,2.151-6.245,5.715,0,3.608,2.211,5.782,6.544,5.782a5.544,5.544,0,0,0,2.779-.627v-3.272h-3.914V185.9h7.858v7.485a12.552,12.552,0,0,1-7.171,1.995C116.74,195.384,112.168,192.381,112.168,186.846Z" transform="translate(-112.168 -178.173)" fill="#fff"/>
        <path id="路径_401" data-name="路径 401" d="M207.077,186.712c0-5.4,4.034-8.539,9.89-8.539s9.89,3.16,9.89,8.539-4.034,8.673-9.89,8.673S207.077,192.09,207.077,186.712Zm15.269,0c0-3.563-2.092-5.692-5.378-5.692s-5.378,2.129-5.378,5.692c0,3.541,2.092,5.8,5.378,5.8S222.346,190.252,222.346,186.712Z" transform="translate(-185.653 -178.173)" fill="#fff"/>
        <path id="路径_402" data-name="路径 402" d="M299.6,179.564h4.631l2.928,8.068c.687,1.838,1.135,3.5,1.852,5.356h.15c.687-1.86,1.2-3.518,1.882-5.356l2.868-8.068H318.4l-6.783,16.584h-5.259Z" transform="translate(-257.293 -179.25)" fill="#fff"/>
      </g>
    </g>
  </g>
</svg>
