<svg xmlns="http://www.w3.org/2000/svg" width="100" height="100" viewBox="0 0 100 100">
  <g id="icon-advanced" transform="translate(-869 -339)">
    <rect id="矩形_148" data-name="矩形 148" width="100" height="100" transform="translate(869 339)" fill="none"/>
    <g id="组_388" data-name="组 388" transform="translate(864 344)">
      <g id="组_387" data-name="组 387" transform="translate(10)">
        <g id="组_386" data-name="组 386">
          <path id="路径_442" data-name="路径 442" d="M120.26,11.848a44.783,44.783,0,0,0-5.08-3.187l-2.665,4.954a39.353,39.353,0,0,1,4.442,2.788Z" transform="translate(-48.885 -3.285)" fill="#0d73ad"/>
          <path id="路径_443" data-name="路径 443" d="M128.8,38.994a44.474,44.474,0,0,0-6.087-17.281L117.9,24.631a38.765,38.765,0,0,1,4.766,11.922H92.671V6.563a39.407,39.407,0,0,1,5.416,1.6l1.969-5.266A44.807,44.807,0,0,0,90.211.425L87.046,0V42.178h42.178Z" transform="translate(-39.224)" fill="#0d73ad"/>
          <path id="路径_444" data-name="路径 444" d="M129.739,27.907l4.376-3.527a45.144,45.144,0,0,0-4.062-4.411L126.18,24.05A38.97,38.97,0,0,1,129.739,27.907Z" transform="translate(-54.068 -7.574)" fill="#0d73ad"/>
          <path id="路径_445" data-name="路径 445" d="M52.2,0,49.008.425A45.107,45.107,0,0,0,10,44.991a44.593,44.593,0,0,0,9.255,27.269L21.2,74.815,52.2,43.827ZM21.868,66.2A38.823,38.823,0,0,1,15.7,47.191l12.58,12.586ZM32.277,55.791,16.039,39.571a38.831,38.831,0,0,1,1.474-6.47L36.237,51.824Zm7.947-7.947L19.817,27.455a39.61,39.61,0,0,1,2.971-4.993L44.2,43.869Zm6.346-9.559L26.355,18.071a39.526,39.526,0,0,1,4.157-3.809L46.569,30.319Zm0-15.922L35.23,11.024A38.951,38.951,0,0,1,46.569,6.563Z" transform="translate(-10)" fill="#0d73ad"/>
          <path id="路径_446" data-name="路径 446" d="M34.473,108.007l2.557,1.953a44.594,44.594,0,0,0,27.261,9.254A45.106,45.106,0,0,0,108.858,80.2l.425-3.184H65.456ZM102.72,82.644a39.478,39.478,0,0,1-38.429,30.944,38.9,38.9,0,0,1-21.208-6.242l24.7-24.7Z" transform="translate(-19.283 -29.214)" fill="#0d73ad"/>
        </g>
      </g>
    </g>
  </g>
</svg>
