<svg xmlns="http://www.w3.org/2000/svg" width="120" height="120" viewBox="0 0 120 120">
  <g id="icon-water-level" transform="translate(-590 -262)">
    <circle id="椭圆_2" data-name="椭圆 2" cx="60" cy="60" r="60" transform="translate(590 262)" fill="#2faae5"/>
    <path id="路径_461" data-name="路径 461" d="M37.686,63.64l.047.044a10.151,10.151,0,0,0,13.845,0l.047-.045a5.763,5.763,0,0,1,7.861,0l.047.044a10.151,10.151,0,0,0,13.843,0l.05-.047a5.775,5.775,0,0,1,7.234-.514V69.5H85V65.179H91.17V60.839H85v-3.21H91.17V53.29H85V48.748H91.17V44.408H85V39.866H91.17V35.527H85V30.984H91.17V26.645H85V22.1H91.17V17.763H85V13.221H91.17V8.881H85V4.339H95.761V69.5H100.1V0H80.659V32.279A10.159,10.159,0,0,0,70.43,34.463l-.045.043a5.763,5.763,0,0,1-7.861,0l-.047-.044a10.151,10.151,0,0,0-13.845,0l-.047.045a5.763,5.763,0,0,1-7.861,0l-.047-.044a10.156,10.156,0,0,0-10.178-2.2v4.794a5.777,5.777,0,0,1,7.186.548l.047.044a10.151,10.151,0,0,0,13.845,0l.047-.045a5.763,5.763,0,0,1,7.861,0l.047.044a10.151,10.151,0,0,0,13.843,0l.05-.047a5.775,5.775,0,0,1,7.234-.514V45.3A10.16,10.16,0,0,0,70.43,47.481l-.045.043a5.763,5.763,0,0,1-7.861,0l-.047-.045a10.152,10.152,0,0,0-13.845,0l-.047.045a5.764,5.764,0,0,1-7.861,0l-.047-.045a10.156,10.156,0,0,0-10.178-2.2v4.8a5.775,5.775,0,0,1,7.186.546l.047.044a10.152,10.152,0,0,0,13.845,0l.047-.045a5.763,5.763,0,0,1,7.861,0l.047.044a10.151,10.151,0,0,0,13.843,0l.05-.047a5.775,5.775,0,0,1,7.234-.514v8.208A10.159,10.159,0,0,0,70.43,60.5l-.045.043a5.763,5.763,0,0,1-7.861,0l-.047-.045a10.152,10.152,0,0,0-13.845,0l-.047.045a5.764,5.764,0,0,1-7.861,0l-.047-.045A10.156,10.156,0,0,0,30.5,58.3v4.8A5.775,5.775,0,0,1,37.686,63.64Z" transform="translate(583.5 289.6)" fill="#fff"/>
  </g>
</svg>
