<svg xmlns="http://www.w3.org/2000/svg" width="100" height="100" viewBox="0 0 100 100">
  <g id="组_375" data-name="组 375" transform="translate(-212 -325)">
    <g id="组_374" data-name="组 374" transform="translate(-383 -43)">
      <rect id="矩形_148" data-name="矩形 148" width="100" height="100" transform="translate(595 368)" fill="none"/>
    </g>
    <g id="组_373" data-name="组 373" transform="translate(-196 -41)">
      <g id="组_372" data-name="组 372" transform="translate(408 375.999)">
        <g id="组_370" data-name="组 370" transform="translate(13.793)">
          <path id="路径_422" data-name="路径 422" d="M180.036-468.744l7.8,2.494a10.882,10.882,0,0,1,2.559.366l10.6,3.029h1.056l.426-.224v-6.46a5.169,5.169,0,0,0-3.917-5.019l-9.874-2.467-.007-5.456.862-.5a8.654,8.654,0,0,0,4.315-7.461v-3.014a8.914,8.914,0,0,0-8.354-9.05,8.524,8.524,0,0,0-6.269,2.428,8.549,8.549,0,0,0-2.619,6.188v3.448a8.645,8.645,0,0,0,4.312,7.457l.86.5v5.46l-9.876,2.467A5.169,5.169,0,0,0,168-469.539v.51l.988-.219A21.292,21.292,0,0,1,180.036-468.744Z" transform="translate(-149.034 502.511)" fill="#fff"/>
          <path id="路径_423" data-name="路径 423" d="M335.012-464.894l18.961-9.979-8.614-2.152-.007-5.456.862-.5a8.654,8.654,0,0,0,4.315-7.461v-3.014a8.914,8.914,0,0,0-8.354-9.05,8.5,8.5,0,0,0-6.269,2.428,8.548,8.548,0,0,0-2.619,6.188v3.448a8.645,8.645,0,0,0,4.312,7.457l.86.5v5.46l-5.917,1.478a8.579,8.579,0,0,1,2.469,6.008Z" transform="translate(-278.116 502.511)" fill="#fff"/>
          <path id="路径_424" data-name="路径 424" d="M90.279-467.554l-.14.488,5.378-1.2v-1.277a8.579,8.579,0,0,1,2.469-6.008l-5.916-1.478-.007-5.456.862-.5a8.654,8.654,0,0,0,4.315-7.461v-3.014a8.914,8.914,0,0,0-8.354-9.05,8.509,8.509,0,0,0-6.269,2.428A8.549,8.549,0,0,0,80-493.889v3.448a8.645,8.645,0,0,0,4.312,7.457l.86.5v5.46l-3.92.98,9.093,5.3Z" transform="translate(-80 502.511)" fill="#fff"/>
        </g>
        <g id="组_371" data-name="组 371" transform="translate(0 22.415)">
          <path id="路径_425" data-name="路径 425" d="M17.257-398.5H16v29.791l7.4,2.467,6.257-25.026Z" transform="translate(-16 398.505)" fill="#fff"/>
          <path id="路径_426" data-name="路径 426" d="M75.561-354.259l-3.932-2.293-6.078,24.311,3.394,1.131h.145l6.472-22.655Z" transform="translate(-54.872 365.593)" fill="#fff"/>
          <path id="路径_427" data-name="路径 427" d="M166.9-212.572a1.935,1.935,0,0,0-1.933-1.933,1.945,1.945,0,0,0-1.367.566l-3.031,3.031a1.946,1.946,0,0,0-.566,1.367,1.935,1.935,0,0,0,1.933,1.933,1.946,1.946,0,0,0,1.367-.566l3.031-3.031A1.946,1.946,0,0,0,166.9-212.572Z" transform="translate(-128.966 254.16)" fill="#fff"/>
          <path id="路径_428" data-name="路径 428" d="M142.9-236.572a1.935,1.935,0,0,0-1.933-1.933,1.945,1.945,0,0,0-1.367.566l-3.031,3.031a1.946,1.946,0,0,0-.566,1.367,1.935,1.935,0,0,0,1.933,1.933,1.946,1.946,0,0,0,1.367-.566l3.031-3.031A1.946,1.946,0,0,0,142.9-236.572Z" transform="translate(-110.138 272.988)" fill="#fff"/>
          <path id="路径_429" data-name="路径 429" d="M136.07-321.539a3.559,3.559,0,0,0-4.134-.4l-6.42,3.85a5.758,5.758,0,0,1-2.971.824,5.783,5.783,0,0,1-5.776-5.776v-.341a5.747,5.747,0,0,1,3.19-5.166l8.611-4.305-2.54-.812a17.762,17.762,0,0,0-9.25-.419l-11.64,2.588-4.643,16.25,5.3,3.178a5.317,5.317,0,0,1,.483-.59l3.031-3.031a5.417,5.417,0,0,1,3.805-1.576,5.375,5.375,0,0,1,5.36,5.192,5.368,5.368,0,0,1,5.172,5.172,5.368,5.368,0,0,1,5.172,5.172,5.364,5.364,0,0,1,4.63,3.013l3.848,3.208a2.848,2.848,0,0,0,1.814.657,1.8,1.8,0,0,0,1.8-1.8,1.785,1.785,0,0,0-.647-1.379l-9.08-7.566,2.209-2.65,9.365,7.8a1.8,1.8,0,0,0,1.15.417h.376a1.8,1.8,0,0,0,1.8-1.8,1.8,1.8,0,0,0-.645-1.381l-9.08-7.565,2.209-2.65,9.35,7.791a1.85,1.85,0,0,0,1.186.431h.3a1.855,1.855,0,0,0,1.854-1.854,1.867,1.867,0,0,0-.614-1.381Z" transform="translate(-82.286 348.298)" fill="#fff"/>
          <path id="路径_430" data-name="路径 430" d="M219.112-364.514l-10.835-3.095a7.493,7.493,0,0,0-5.373.5l-9.617,4.809A2.313,2.313,0,0,0,192-360.221v.341a2.329,2.329,0,0,0,2.328,2.328,2.307,2.307,0,0,0,1.193-.331l6.423-3.852a6.943,6.943,0,0,1,3.572-.99,6.923,6.923,0,0,1,4.645,1.785l14.565,13.11c.1.093.2.188.3.288l29.047-14.525v-19.4l-32.333,17.017Z" transform="translate(-154.069 385.138)" fill="#fff"/>
          <path id="路径_431" data-name="路径 431" d="M190.9-188.572a1.935,1.935,0,0,0-1.933-1.933,1.945,1.945,0,0,0-1.367.566l-3.031,3.031a1.946,1.946,0,0,0-.566,1.367,1.935,1.935,0,0,0,1.933,1.933,1.946,1.946,0,0,0,1.367-.566l3.031-3.031A1.946,1.946,0,0,0,190.9-188.572Z" transform="translate(-147.793 235.333)" fill="#fff"/>
          <path id="路径_432" data-name="路径 432" d="M212.964-166.505a1.946,1.946,0,0,0-1.367.566l-3.031,3.031a1.946,1.946,0,0,0-.566,1.367,1.935,1.935,0,0,0,1.933,1.933,1.946,1.946,0,0,0,1.367-.566l3.031-3.031a1.946,1.946,0,0,0,.566-1.367A1.935,1.935,0,0,0,212.964-166.505Z" transform="translate(-166.621 216.505)" fill="#fff"/>
          <path id="路径_433" data-name="路径 433" d="M246.628-146.008l-1.567-1.3a5.364,5.364,0,0,1-1.086,1.6l-1.295,1.295,1.29,1.137a1.787,1.787,0,0,0,1.188.45h.319a1.8,1.8,0,0,0,1.8-1.8A1.794,1.794,0,0,0,246.628-146.008Z" transform="translate(-193.827 201.449)" fill="#fff"/>
        </g>
      </g>
    </g>
  </g>
</svg>
