<svg xmlns="http://www.w3.org/2000/svg" width="100" height="89.732" viewBox="0 0 100 89.732">
  <g id="icon-notice" transform="translate(0 -20.495)">
    <path id="路径_385" data-name="路径 385" d="M361.365,94.067a2.505,2.505,0,1,0-4.125,2.844,29.5,29.5,0,0,1,5.091,16.85,29.865,29.865,0,0,1-5.184,16.987,2.505,2.505,0,1,0,4.107,2.87,35.433,35.433,0,0,0,.111-39.55Z" transform="translate(-267.342 -54.33)" fill="#a7e5ff"/>
    <path id="路径_386" data-name="路径 386" d="M328.617,122.32a2.5,2.5,0,1,0-4.125,2.844,17.156,17.156,0,0,1,2.956,9.8,17.371,17.371,0,0,1-3.01,9.881,2.505,2.505,0,1,0,4.107,2.869,22.729,22.729,0,0,0,.071-25.394Z" transform="translate(-242.826 -75.506)" fill="#a7e5ff"/>
    <path id="路径_387" data-name="路径 387" d="M75.91,20.5a4.32,4.32,0,0,0-3.4,2.046c-.082.108-8.452,10.878-29.336,17.317-1.982.611-4.174,1.043-4.2,1.047a6.564,6.564,0,0,0-1.43.456,5.007,5.007,0,0,0-4.284-2.425H12.183a5.016,5.016,0,0,0-5.01,5.01V46.7a6.972,6.972,0,0,0-1.081-.086C2.733,46.61,0,49,0,51.93V65.78C0,68.713,2.733,71.1,6.092,71.1a6.939,6.939,0,0,0,1.081-.086v2.249a5.016,5.016,0,0,0,5.01,5.01h.677l6.361,26.383a7.542,7.542,0,0,0,7.074,5.571h6.732a5.327,5.327,0,0,0,5.312-6.745L32.261,78.273h1a5.007,5.007,0,0,0,4.285-2.427,6.561,6.561,0,0,0,1.427.455c.022,0,2.213.436,4.2,1.049C64.055,83.8,72.423,94.562,72.5,94.663a4.327,4.327,0,0,0,3.408,2.051h0a3.17,3.17,0,0,0,2.869-1.86,5.479,5.479,0,0,0,.486-2.446V24.8C79.264,20.616,76.253,20.5,75.91,20.5ZM6.092,66.089a1.463,1.463,0,0,1-1.081-.376V52a1.463,1.463,0,0,1,1.081-.376A1.463,1.463,0,0,1,7.173,52V65.713A1.462,1.462,0,0,1,6.092,66.089Zm27.377,38.567a.374.374,0,0,1-.442.561H26.295a2.522,2.522,0,0,1-2.2-1.735L18.014,78.273h9.093ZM12.183,73.263V43.946H33.262V69.365c0,.006,0,.012,0,.018v3.88ZM74.254,89.149c-3.9-3.9-13.108-11.488-29.606-16.585-2.244-.693-4.613-1.159-4.713-1.179a2.268,2.268,0,0,1-1.663-2.02V47.841a2.267,2.267,0,0,1,1.663-2.019c.1-.02,2.468-.485,4.712-1.177,16.5-5.086,25.7-12.673,29.608-16.581Z" fill="#a7e5ff"/>
  </g>
</svg>
