<?xml version="1.0" encoding="utf-8"?>
<!-- Generator: Adobe Illustrator 16.0.0, SVG Export Plug-In . SVG Version: 6.00 Build 0)  -->
<!DOCTYPE svg PUBLIC "-//W3C//DTD SVG 1.1//EN" "http://www.w3.org/Graphics/SVG/1.1/DTD/svg11.dtd">
<svg version="1.1" id="圖層_1" xmlns="http://www.w3.org/2000/svg" xmlns:xlink="http://www.w3.org/1999/xlink" x="0px" y="0px"
	 width="100px" height="89.732px" viewBox="0 0 100 89.732" enable-background="new 0 0 100 89.732" xml:space="preserve">
<g id="icon-notice" transform="translate(0 -20.495)">
	<path id="路径_385" fill="#0D73AD" d="M94.023,39.737c-0.785-1.139-2.346-1.426-3.484-0.641c-1.14,0.785-1.426,2.346-0.641,3.484
		c3.371,4.968,5.148,10.847,5.09,16.851c0.035,6.057-1.772,11.981-5.184,16.986c-0.792,1.135-0.516,2.696,0.619,3.489
		c1.134,0.792,2.695,0.516,3.488-0.619C101.988,67.354,102.031,51.717,94.023,39.737L94.023,39.737z"/>
	<path id="路径_386" fill="#0D73AD" d="M85.791,46.814c-0.785-1.139-2.346-1.426-3.484-0.641s-1.426,2.346-0.641,3.484
		c1.959,2.89,2.99,6.309,2.956,9.8c0.021,3.523-1.028,6.969-3.011,9.882c-0.801,1.128-0.535,2.691,0.593,3.492
		s2.691,0.536,3.493-0.592c0.007-0.011,0.014-0.021,0.021-0.032C90.91,64.547,90.938,54.504,85.791,46.814L85.791,46.814z"/>
	<path id="路径_387" fill="#0D73AD" d="M75.91,20.5c-1.398,0.091-2.666,0.854-3.4,2.046c-0.082,0.108-8.451,10.879-29.336,17.317
		c-1.982,0.611-4.174,1.043-4.2,1.047c-0.493,0.097-0.973,0.25-1.43,0.456c-0.904-1.503-2.53-2.423-4.284-2.425H12.183
		c-2.766,0.003-5.007,2.244-5.01,5.01V46.7c-0.357-0.057-0.719-0.085-1.081-0.086C2.733,46.61,0,49,0,51.93v13.85
		c0,2.934,2.733,5.32,6.092,5.32c0.362-0.001,0.724-0.029,1.081-0.086v2.249c0.003,2.766,2.245,5.007,5.01,5.01h0.677l6.361,26.383
		c0.869,3.216,3.744,5.479,7.074,5.571h6.732c2.94,0.099,5.404-2.206,5.502-5.146c0.018-0.539-0.046-1.078-0.19-1.599l-6.078-25.209
		h1c1.755-0.002,3.38-0.923,4.285-2.427c0.457,0.205,0.936,0.358,1.427,0.455c0.022,0,2.213,0.436,4.2,1.049
		C64.055,83.8,72.423,94.562,72.5,94.663c0.736,1.196,2.006,1.961,3.408,2.052l0,0c1.237-0.008,2.357-0.733,2.869-1.86
		c0.348-0.768,0.514-1.604,0.486-2.446V24.8C79.264,20.616,76.253,20.5,75.91,20.5z M6.092,66.089
		c-0.396,0.026-0.787-0.109-1.081-0.376V52c0.294-0.267,0.684-0.402,1.081-0.376C6.488,51.597,6.879,51.733,7.173,52v13.714
		C6.879,65.98,6.488,66.116,6.092,66.089z M33.469,104.656c0.117,0.17,0.074,0.403-0.096,0.521c-0.102,0.069-0.23,0.085-0.346,0.041
		h-6.732c-1.017-0.081-1.885-0.766-2.2-1.735l-6.081-25.209h9.093L33.469,104.656z M12.183,73.263V43.946h21.079v25.419
		c0,0.006,0,0.012,0,0.019v3.88H12.183z M74.254,89.149c-3.9-3.9-13.107-11.488-29.606-16.585c-2.244-0.693-4.613-1.159-4.713-1.179
		c-0.926-0.254-1.592-1.063-1.663-2.021V47.841c0.071-0.958,0.737-1.767,1.663-2.02c0.1-0.02,2.468-0.485,4.712-1.177
		c16.5-5.086,25.701-12.673,29.608-16.581L74.254,89.149z"/>
</g>
</svg>
