<svg xmlns="http://www.w3.org/2000/svg" width="120" height="120" viewBox="0 0 120 120">
  <g id="组_334" data-name="组 334" transform="translate(-1075 -586)">
    <path id="路径_108" data-name="路径 108" d="M60,0A60,60,0,1,1,0,60,60,60,0,0,1,60,0Z" transform="translate(1075 586)" fill="gray"/>
    <g id="组_31" data-name="组 31" transform="translate(-1.478 21.444)">
      <path id="路径_59" data-name="路径 59" d="M1119.076,621.978h5.326a2.639,2.639,0,0,0,2.637-2.631v-5.315a2.639,2.639,0,0,0-2.637-2.631h-5.326a2.637,2.637,0,0,0-2.634,2.631v5.315A2.637,2.637,0,0,0,1119.076,621.978Zm.1-7.84h5.127v5.1h-5.127Z" fill="#fff" stroke="#fff" stroke-miterlimit="10" stroke-width="1"/>
      <path id="路径_60" data-name="路径 60" d="M1166.559,631.536a4.626,4.626,0,0,0-1.912.414,4.213,4.213,0,0,0-2.814-2.791V599.776a6.465,6.465,0,0,0-6.462-6.451h-44.926a6.466,6.466,0,0,0-6.464,6.451v3.639a3.106,3.106,0,0,0,3.1,3.1h1.333v51.349a3.1,3.1,0,0,0,3.1,3.1H1147.7a14.043,14.043,0,0,0,7.673,2.363,13.488,13.488,0,0,0,4.44-.759,15.835,15.835,0,0,0,7.992-6.489,21.183,21.183,0,0,0,3.165-11.617v-8.342a4.352,4.352,0,0,0-4.414-4.582Zm-55.407,26.328V606.515h12.526a1.367,1.367,0,1,0,0-2.735h-16.594a.371.371,0,0,1-.368-.365v-3.639a3.725,3.725,0,0,1,3.729-3.714h39.645a6.409,6.409,0,0,0-1.183,3.714v3.639a.371.371,0,0,1-.369.365h-12.554a1.367,1.367,0,0,0,0,2.735h12.554a3.105,3.105,0,0,0,3.1-3.1v-3.639a3.729,3.729,0,0,1,7.457,0v29.383a4.605,4.605,0,0,0-.542.205,4.3,4.3,0,0,0-4.181-3,4.55,4.55,0,0,0-1.679.317v-7.7a4.415,4.415,0,1,0-8.824,0v19.754c0,.621.012,1.19.022,1.69,0,.054,0,.107,0,.164l-3.177-3.408a4.556,4.556,0,0,0-6.509-.494,5.539,5.539,0,0,0-.674,7.73l9.49,12.182a21.409,21.409,0,0,0,1.406,1.628h-32.912A.372.372,0,0,1,1111.152,657.864Zm57.087-13.4c.043,7.445-3.614,13.537-9.319,15.513-4.824,1.674-9.96-.216-13.736-5.06l-9.49-12.18a2.843,2.843,0,0,1,.291-3.97,1.934,1.934,0,0,1,1.227-.495,2.06,2.06,0,0,1,1.508.772l3.33,3.57c.94,1.006,2.107,2.26,3.4,1.735a2.165,2.165,0,0,0,1.16-1.971c.043-.526.033-1.182.015-2.012-.01-.486-.021-1.037-.021-1.633V618.983a1.685,1.685,0,1,1,3.355,0v19.571a1.367,1.367,0,0,0,2.735,0v-7.61a1.641,1.641,0,0,1,1.679-1.847,1.691,1.691,0,0,1,1.157.435,1.843,1.843,0,0,1,.521,1.414v7.608a1.367,1.367,0,1,0,2.734,0v-5.022a1.642,1.642,0,0,1,1.677-1.849,1.694,1.694,0,0,1,1.158.435,1.842,1.842,0,0,1,.522,1.414v5.022a1.367,1.367,0,1,0,2.733,0v-2.436a1.644,1.644,0,0,1,1.682-1.849,1.7,1.7,0,0,1,1.158.433,1.851,1.851,0,0,1,.521,1.416v8.35Z" fill="#fff" stroke="#fff" stroke-miterlimit="10" stroke-width="1"/>
      <path id="路径_61" data-name="路径 61" d="M1130.056,612.771a1.369,1.369,0,0,0,1.367,1.367h10.941a1.368,1.368,0,0,0,0-2.737h-10.941A1.369,1.369,0,0,0,1130.056,612.771Z" fill="#fff" stroke="#fff" stroke-miterlimit="10" stroke-width="1"/>
      <path id="路径_62" data-name="路径 62" d="M1140.044,619.241h-8.621a1.369,1.369,0,0,0,0,2.737h8.621a1.369,1.369,0,0,0,0-2.737Z" fill="#fff" stroke="#fff" stroke-miterlimit="10" stroke-width="1"/>
      <path id="路径_63" data-name="路径 63" d="M1117.809,629.819h20.881a1.367,1.367,0,1,0,0-2.734h-20.881a1.367,1.367,0,0,0,0,2.734Z" fill="#fff" stroke="#fff" stroke-miterlimit="10" stroke-width="1"/>
      <path id="路径_64" data-name="路径 64" d="M1117.809,637.659h11.264a1.368,1.368,0,0,0,0-2.736h-11.264a1.368,1.368,0,0,0,0,2.736Z" fill="#fff" stroke="#fff" stroke-miterlimit="10" stroke-width="1"/>
      <path id="路径_65" data-name="路径 65" d="M1117.809,645.5h9.92a1.366,1.366,0,1,0,0-2.732h-9.92a1.366,1.366,0,1,0,0,2.732Z" fill="#fff" stroke="#fff" stroke-miterlimit="10" stroke-width="1"/>
      <path id="路径_66" data-name="路径 66" d="M1132.364,650.606h-14.555a1.366,1.366,0,1,0,0,2.733h14.555a1.366,1.366,0,0,0,0-2.733Z" fill="#fff" stroke="#fff" stroke-miterlimit="10" stroke-width="1"/>
      <path id="路径_67" data-name="路径 67" d="M1129.831,606.515h.009a1.372,1.372,0,1,0-.009,0Z" fill="#fff" stroke="#fff" stroke-miterlimit="10" stroke-width="1"/>
    </g>
  </g>
</svg>
