<svg xmlns="http://www.w3.org/2000/svg" width="150" height="150" viewBox="0 0 150 150">
  <g id="iocn-flooddepth" transform="translate(-925 -1598)">
    <g id="组_500" data-name="组 500">
      <g id="椭圆_39" data-name="椭圆 39" transform="translate(925 1598)" fill="#2faae5" stroke="#2faae5" stroke-width="1">
        <circle cx="75" cy="75" r="75" stroke="none"/>
        <circle cx="75" cy="75" r="74.5" fill="none"/>
      </g>
      <text id="淹水深度" transform="translate(956 1719.259)" fill="#fff" font-size="22" font-family="NotoSansCJKtc-Bold, Noto Sans CJK TC" font-weight="700"><tspan x="0" y="0">淹水深度</tspan></text>
    </g>
    <g id="组_494" data-name="组 494" transform="translate(968 1622)">
      <path id="路径_59" data-name="路径 59" d="M235.619,510.972h9.115a1.709,1.709,0,0,0,1.709-1.708v-9.115a1.709,1.709,0,0,0-1.709-1.709h-9.115a1.71,1.71,0,0,0-1.709,1.709v9.115A1.709,1.709,0,0,0,235.619,510.972Zm1.709-9.114h5.7v5.7h-5.7Z" transform="translate(-197.184 -473.924)" fill="#fff"/>
      <path id="路径_60" data-name="路径 60" d="M203.922,523.8a4.108,4.108,0,0,1,2.761.991,8.017,8.017,0,0,0,9.769,0,4.345,4.345,0,0,1,5.525,0,8.017,8.017,0,0,0,9.769,0,4.346,4.346,0,0,1,5.525,0,8.017,8.017,0,0,0,9.769,0,4.346,4.346,0,0,1,5.525,0,8.015,8.015,0,0,0,9.768,0,4.108,4.108,0,0,1,2.762-.991,1.99,1.99,0,0,0,0-3.977,7.672,7.672,0,0,0-4.883,1.661,9.219,9.219,0,0,1-.85.548V501.751l2.01,1.63a1.866,1.866,0,0,0,2.686-.351,2.042,2.042,0,0,0-.337-2.789l-28.04-22.679a1.85,1.85,0,0,0-2.345,0L205.3,500.241a2.043,2.043,0,0,0-.337,2.789,1.865,1.865,0,0,0,2.684.351l2.015-1.63v20.278a9.239,9.239,0,0,1-.852-.548,7.688,7.688,0,0,0-4.883-1.661,1.99,1.99,0,0,0,0,3.977Zm26.126-2.607c-.149.1-.288.194-.424.291a4.346,4.346,0,0,1-5.525,0,8.285,8.285,0,0,0-2.973-1.45V505.895h8.922Zm4.461-39.542,21.03,17.013v23.368a9.537,9.537,0,0,1-.851-.548,8.012,8.012,0,0,0-9.769,0,4.346,4.346,0,0,1-5.525,0,7.7,7.7,0,0,0-4.884-1.661c-.223,0-.433.013-.638.024V503.906a1.951,1.951,0,0,0-1.912-1.988H219.216a1.951,1.951,0,0,0-1.914,1.988v16.125a8.288,8.288,0,0,0-2.972,1.45,8.664,8.664,0,0,1-.851.548V498.661Z" transform="translate(-202.01 -477.143)" fill="#fff"/>
      <path id="路径_61" data-name="路径 61" d="M265.1,521.806a8.489,8.489,0,0,0-4.883,1.424,4.9,4.9,0,0,1-5.525,0,9.09,9.09,0,0,0-9.769,0,4.9,4.9,0,0,1-5.525,0,9.09,9.09,0,0,0-9.769,0,4.9,4.9,0,0,1-5.525,0,9.09,9.09,0,0,0-9.769,0,4.9,4.9,0,0,1-5.525,0,8.507,8.507,0,0,0-4.883-1.424,1.719,1.719,0,1,0,0,3.417,4.512,4.512,0,0,1,2.761.852,9.079,9.079,0,0,0,9.769,0,4.9,4.9,0,0,1,5.525,0,9.079,9.079,0,0,0,9.769,0,4.9,4.9,0,0,1,5.525,0,9.079,9.079,0,0,0,9.769,0,4.9,4.9,0,0,1,5.525,0,9.077,9.077,0,0,0,9.768,0,4.513,4.513,0,0,1,2.762-.852,1.72,1.72,0,1,0,0-3.417Z" transform="translate(-202.01 -470.221)" fill="#fff"/>
      <path id="路径_62" data-name="路径 62" d="M265.1,529.78a8.473,8.473,0,0,0-4.883,1.426,4.9,4.9,0,0,1-5.525,0,9.079,9.079,0,0,0-9.769,0,4.9,4.9,0,0,1-5.525,0,9.079,9.079,0,0,0-9.769,0,4.9,4.9,0,0,1-5.525,0,9.079,9.079,0,0,0-9.769,0,4.9,4.9,0,0,1-5.525,0,8.49,8.49,0,0,0-4.883-1.426,1.72,1.72,0,1,0,0,3.418,4.512,4.512,0,0,1,2.761.853,9.074,9.074,0,0,0,9.769,0,4.9,4.9,0,0,1,5.525,0,9.074,9.074,0,0,0,9.769,0,4.9,4.9,0,0,1,5.525,0,9.074,9.074,0,0,0,9.769,0,4.9,4.9,0,0,1,5.525,0,9.061,9.061,0,0,0,9.768,0,4.519,4.519,0,0,1,2.762-.851,1.72,1.72,0,1,0,0-3.418Z" transform="translate(-202.01 -470.221)" fill="#fff"/>
    </g>
  </g>
</svg>
