<svg xmlns="http://www.w3.org/2000/svg" width="150" height="150" viewBox="0 0 150 150">
  <g id="iocn-riverdepth" transform="translate(-925 -927.49)">
    <path id="路径_51" data-name="路径 51" d="M180.9,356.55a75,75,0,1,1,75,75A75,75,0,0,1,180.9,356.55Z" transform="translate(744.096 645.938)" fill="#22b573"/>
    <text id="水位" transform="translate(978 1055.259)" fill="#fff" font-size="22" font-family="NotoSansCJKtc-Bold, Noto Sans CJK TC" font-weight="700"><tspan x="0" y="0">水位</tspan></text>
    <path id="路径_461" data-name="路径 461" d="M37.211,59.434l.043.041a9.48,9.48,0,0,0,12.93,0l.044-.042a5.382,5.382,0,0,1,7.341,0l.043.041a9.48,9.48,0,0,0,12.928,0l.046-.044a5.393,5.393,0,0,1,6.756-.48V64.91H81.4V60.871h5.764V56.818H81.4v-3h5.764V49.768H81.4V45.526h5.764V41.473H81.4V37.231h5.764V33.179H81.4V28.937h5.764V24.884H81.4V20.642h5.764V16.589H81.4V12.347h5.764V8.294H81.4V4.053H91.447V64.91H95.5V0H77.344V30.146a9.488,9.488,0,0,0-9.553,2.04l-.042.04a5.383,5.383,0,0,1-7.341,0l-.044-.041a9.481,9.481,0,0,0-12.93,0l-.044.042a5.383,5.383,0,0,1-7.341,0l-.043-.041A9.485,9.485,0,0,0,30.5,30.13v4.477a5.4,5.4,0,0,1,6.711.512l.043.041a9.48,9.48,0,0,0,12.93,0l.044-.042a5.382,5.382,0,0,1,7.341,0l.043.041a9.48,9.48,0,0,0,12.928,0l.046-.044a5.394,5.394,0,0,1,6.756-.48V42.3a9.488,9.488,0,0,0-9.553,2.04l-.042.04a5.383,5.383,0,0,1-7.341,0l-.044-.042a9.481,9.481,0,0,0-12.93,0l-.044.042a5.383,5.383,0,0,1-7.341,0l-.043-.042A9.485,9.485,0,0,0,30.5,42.288v4.478a5.393,5.393,0,0,1,6.711.51l.043.041a9.481,9.481,0,0,0,12.93,0l.044-.042a5.382,5.382,0,0,1,7.341,0l.043.041a9.48,9.48,0,0,0,12.928,0l.046-.044a5.393,5.393,0,0,1,6.756-.48v7.665a9.488,9.488,0,0,0-9.553,2.04l-.042.04a5.383,5.383,0,0,1-7.341,0l-.044-.042a9.481,9.481,0,0,0-12.93,0l-.044.042a5.383,5.383,0,0,1-7.341,0l-.043-.042A9.485,9.485,0,0,0,30.5,54.446v4.478A5.393,5.393,0,0,1,37.211,59.434Z" transform="translate(936.5 956)" fill="#fff"/>
  </g>
</svg>
